<?xml version="1.0" encoding="utf-8"?>
<!-- Generator: Adobe Illustrator 22.1.0, SVG Export Plug-In . SVG Version: 6.00 Build 0)  -->
<svg version="1.1" id="Capa_1" xmlns="http://www.w3.org/2000/svg" xmlns:xlink="http://www.w3.org/1999/xlink" x="0px" y="0px"
	 viewBox="0 0 459.7 459.7" style="enable-background:new 0 0 459.7 459.7;" xml:space="preserve">
<style type="text/css">
	.st0{fill:#FFFFFF;}
</style>
<path class="st0" d="M341.3,204.2c-4-6.7-11-10.7-18.8-10.7h-77.8l22.7-176.8c0.9-7.2-3.2-13.7-10.1-15.9c-6.9-2.2-14,0.7-17.5,7
	L118,233.9c-3.7,6.9-3.5,15,0.5,21.7c4,6.7,11,10.7,18.8,10.7h77.8l-22.7,176.8c-0.9,7.2,3.2,13.7,10.1,15.9
	c1.5,0.5,3.1,0.7,4.6,0.7c5.3,0,10.2-2.8,12.8-7.8l121.8-226.1C345.5,219,345.3,210.9,341.3,204.2z M328.6,218.7L207.5,443.5
	l23.6-183.8c0.3-2.1-0.4-4.3-1.8-5.9s-3.5-2.5-5.6-2.5h-86.3c-3.6,0-5.4-2.4-6-3.4s-1.8-3.7-0.2-6.9L252.2,16.2L228.7,200
	c-0.3,2.1,0.4,4.3,1.8,5.9s3.5,2.5,5.6,2.5h86.3c3.6,0,5.4,2.4,6,3.4C329,212.9,330.3,215.6,328.6,218.7z"/>
</svg>
