<svg xmlns="http://www.w3.org/2000/svg" width="88.2mm" height="19.8mm" viewBox="0 0 250 56.2">
  <title>Asset 1</title>
  <g id="Layer_2" data-name="Layer 2">
    <g id="Layer_1-2" data-name="Layer 1">
      <g>
        <g>
          <g>
            <path d="M25.8,56.2a10.6,10.6,0,0,1-5.3-1.4L5.3,46A10.6,10.6,0,0,1,0,36.9V19.3a10.6,10.6,0,0,1,5.3-9.1L20.5,1.4A10.6,10.6,0,0,1,31,1.4l15.2,8.8a10.6,10.6,0,0,1,5.3,9.1V36.9A10.6,10.6,0,0,1,46.2,46L31,54.8A10.6,10.6,0,0,1,25.8,56.2Zm0-51.6a6,6,0,0,0-3,.8L7.6,14.2a6,6,0,0,0-3,5.2V36.9a6,6,0,0,0,3,5.2l15.2,8.8a6,6,0,0,0,6,0L43.9,42a6,6,0,0,0,3-5.2V19.3a6,6,0,0,0-3-5.2L28.7,5.4A6,6,0,0,0,25.8,4.6Z" fill="#008996"/>
            <path d="M25.8,56.2a10.6,10.6,0,0,1-5.3-1.4L5.3,46A10.6,10.6,0,0,1,0,36.9V19.3a10.6,10.6,0,0,1,5.3-9.1L20.5,1.4A10.6,10.6,0,0,1,31,1.4l15.2,8.8a10.6,10.6,0,0,1,5.3,9.1V36.9A10.6,10.6,0,0,1,46.2,46L31,54.8A10.6,10.6,0,0,1,25.8,56.2Zm0-51.6a6,6,0,0,0-3,.8L7.6,14.2a6,6,0,0,0-3,5.2V36.9a6,6,0,0,0,3,5.2l15.2,8.8a6,6,0,0,0,6,0L43.9,42a6,6,0,0,0,3-5.2V19.3a6,6,0,0,0-3-5.2L28.7,5.4A6,6,0,0,0,25.8,4.6Z" fill="#008996"/>
            <path d="M25.8,56.2a10.6,10.6,0,0,1-5.3-1.4L5.3,46A10.6,10.6,0,0,1,0,36.9V19.3a10.6,10.6,0,0,1,5.3-9.1L20.5,1.4A10.6,10.6,0,0,1,31,1.4l15.2,8.8a10.6,10.6,0,0,1,5.3,9.1V36.9A10.6,10.6,0,0,1,46.2,46L31,54.8A10.6,10.6,0,0,1,25.8,56.2Zm0-51.6a6,6,0,0,0-3,.8L7.6,14.2a6,6,0,0,0-3,5.2V36.9a6,6,0,0,0,3,5.2l15.2,8.8a6,6,0,0,0,6,0L43.9,42a6,6,0,0,0,3-5.2V19.3a6,6,0,0,0-3-5.2L28.7,5.4A6,6,0,0,0,25.8,4.6Z" fill="#008996"/>
          </g>
          <g>
            <path d="M34.9,20.7l-7.3-4.2a3.6,3.6,0,0,0-3.6,0l-7.3,4.2a3.6,3.6,0,0,0-1.8,3.1v8.5a3.6,3.6,0,0,0,1.8,3.1L24,39.7a3.6,3.6,0,0,0,3.6,0l7.3-4.2a3.6,3.6,0,0,0,1.8-3.1V23.9A3.6,3.6,0,0,0,34.9,20.7Z" fill="#008996"/>
            <path d="M34.9,20.7l-7.3-4.2a3.6,3.6,0,0,0-3.6,0l-7.3,4.2a3.6,3.6,0,0,0-1.8,3.1v8.5a3.6,3.6,0,0,0,1.8,3.1L24,39.7a3.6,3.6,0,0,0,3.6,0l7.3-4.2a3.6,3.6,0,0,0,1.8-3.1V23.9A3.6,3.6,0,0,0,34.9,20.7Z" fill="#008996"/>
          </g>
        </g>
        <g>
          <g>
            <path d="M103,15.1V44.5H99.2a3.3,3.3,0,0,1-1.4-.3,3.4,3.4,0,0,1-1.1-.9L81.9,24.6q.1.8.1,1.6t0,1.5V44.5H75.7V13.2h4.6l.6.2.5.3.5.6L96.8,33.1q-.1-.9-.2-1.8t0-1.6V13.2h4.5A1.9,1.9,0,0,1,103,15.1Z" fill="#008996"/>
            <path d="M135.5,15.1V44.5h-3.8a3.3,3.3,0,0,1-1.4-.3,3.4,3.4,0,0,1-1.1-.9L114.4,24.6q.1.8.1,1.6t0,1.5V44.5h-6.4V13.2h4.6l.6.2.5.3.5.6,14.9,18.8q-.1-.9-.2-1.8t0-1.6V13.2h4.5A1.9,1.9,0,0,1,135.5,15.1Z" fill="#008996"/>
            <path d="M70.5,44.5H65.7a2.6,2.6,0,0,1-2.6-2.6V13.2h5.3a2,2,0,0,1,2,2Z" fill="#008996"/>
          </g>
          <g>
            <path d="M173.2,28.8a16.8,16.8,0,0,1-1.2,6.3,14.9,14.9,0,0,1-8.4,8.5,18.7,18.7,0,0,1-13.3,0,14.9,14.9,0,0,1-8.5-8.5,16.8,16.8,0,0,1-1.2-6.3,16.8,16.8,0,0,1,1.2-6.3,15,15,0,0,1,3.3-5.1,15.3,15.3,0,0,1,5.1-3.4,17.5,17.5,0,0,1,6.7-1.2,17.3,17.3,0,0,1,6.7,1.2,15.3,15.3,0,0,1,5.1,3.4,15.1,15.1,0,0,1,3.3,5.1A16.8,16.8,0,0,1,173.2,28.8Zm-7.4,0a13.5,13.5,0,0,0-.6-4.2,8.9,8.9,0,0,0-1.7-3.1,7.5,7.5,0,0,0-2.8-2,9.5,9.5,0,0,0-3.7-.7,9.6,9.6,0,0,0-3.7.7,7.4,7.4,0,0,0-2.8,2,8.9,8.9,0,0,0-1.7,3.1,13.5,13.5,0,0,0-.6,4.2,13.6,13.6,0,0,0,.6,4.2,8.8,8.8,0,0,0,1.7,3.1,7.3,7.3,0,0,0,2.8,2,9.8,9.8,0,0,0,3.7.7,9.6,9.6,0,0,0,3.7-.7,7.4,7.4,0,0,0,2.8-2,8.9,8.9,0,0,0,1.7-3.1A13.6,13.6,0,0,0,165.8,28.8Z" fill="#008996"/>
            <path d="M205.7,15.1V44.5h-3.8a3.3,3.3,0,0,1-1.4-.3,3.4,3.4,0,0,1-1.1-.9L184.6,24.6q.1.8.1,1.6t0,1.5V44.5h-6.4V13.2H183l.6.2.5.3.5.6,14.9,18.8q-.1-.9-.2-1.8t0-1.6V13.2h4.5A1.9,1.9,0,0,1,205.7,15.1Z" fill="#008996"/>
            <path d="M246.1,36.4h.5l.5.3,2.9,3a12,12,0,0,1-4.7,3.7,16.6,16.6,0,0,1-6.7,1.3,16,16,0,0,1-6.4-1.2,13.8,13.8,0,0,1-4.8-3.4,14.8,14.8,0,0,1-3-5.1,18.7,18.7,0,0,1-1.1-6.4,17.6,17.6,0,0,1,1.1-6.4,14.9,14.9,0,0,1,3.2-5.1,14.4,14.4,0,0,1,4.9-3.3,16.5,16.5,0,0,1,6.3-1.2,16.9,16.9,0,0,1,3.3.3l2.9.9a13.3,13.3,0,0,1,2.5,1.3,13.1,13.1,0,0,1,2,1.7l-2.4,3.3-.6.5a1.5,1.5,0,0,1-.9.2l-.7-.2-.7-.4-.8-.5-1.1-.5-1.5-.4-2-.2a8,8,0,0,0-3.3.7,7.2,7.2,0,0,0-2.6,1.9,9,9,0,0,0-1.7,3.1,14,14,0,0,0-.6,4.2,12.9,12.9,0,0,0,.7,4.3,9.4,9.4,0,0,0,1.8,3.1,7.6,7.6,0,0,0,2.6,1.9,7.9,7.9,0,0,0,3.2.7h1.8l1.5-.3,1.3-.6,1.3-1,.6-.4Z" fill="#008996"/>
            <path d="M218.1,44.6h-4.7a2.6,2.6,0,0,1-2.6-2.6V13.3h5.3a2,2,0,0,1,2,2Z" fill="#008996"/>
          </g>
        </g>
      </g>
    </g>
  </g>
</svg>
