<?xml version="1.0" encoding="utf-8"?>
<!-- Generator: Adobe Illustrator 22.1.0, SVG Export Plug-In . SVG Version: 6.00 Build 0)  -->
<svg version="1.1" id="Layer_1" xmlns="http://www.w3.org/2000/svg" xmlns:xlink="http://www.w3.org/1999/xlink" x="0px" y="0px"
	 viewBox="0 0 489.6 489.6" style="enable-background:new 0 0 489.6 489.6;" xml:space="preserve">
<style type="text/css">
	.st0{fill:#FFFFFF;}
</style>
<g>
	<g>
		<path class="st0" d="M41.7,248.8c4.5,16.4,16.5,38.5,18.3,41.9c2.2,5.1,3.6,10.4,4.1,15.9L81,472.2c1,9.9,9.3,17.4,19.3,17.4h29.2
			c10,0,18.3-7.5,19.3-17.4l16.9-165.6c0.6-5.6,2-11.1,4.3-16.2c2-4.6-0.1-9.9-4.6-11.9c-4.6-2-9.9,0.1-11.9,4.6
			c-3,6.9-5,14.2-5.7,21.7l-16.9,165.6c-0.1,0.6-0.6,1.1-1.2,1.1h-29.2c-0.6,0-1.2-0.5-1.2-1.1L82.2,304.7
			c-0.8-7.5-2.7-14.8-5.7-21.7c-0.1-0.3-0.2-0.5-0.4-0.8C76,282,63.4,259.3,59.2,244c-4.6-17.1-5.9-54.3-2.1-60.9
			c3-3,4.3-4.2,7.4-6.5c7.9-5.8,17-10.5,22.9-13.3l20.2,27.8c1.7,2.3,4.4,3.7,7.3,3.7s5.6-1.4,7.3-3.7l24.5-33.7c2.9-4,2-9.7-2-12.7
			c-4-2.9-9.7-2-12.7,2l-17.2,23.6l-17-23.5c-2.4-3.4-6.9-4.6-10.7-3.1c-0.7,0.3-18.5,7.5-33.3,18.4c-4.2,3.1-6.2,5-9.7,8.5
			C31.3,183.4,38.4,236.6,41.7,248.8z"/>
		<path class="st0" d="M114.1,131.9c0.2,0,0.4,0,0.6,0c0.1,0,0.3,0,0.4,0c0.2,0,0.4,0,0.7,0c11.6-0.3,21.4-4.5,28.4-12.4
			c14.9-16.8,12.8-44.8,12.4-48.3c-1.5-30.9-23-41.8-40.9-41.8c-0.3,0-0.6,0-0.8,0c-0.2,0-0.5,0-0.8,0c-17.9,0-39.3,11-40.9,41.8
			c-0.3,3.5-2.5,31.5,12.4,48.3C92.7,127.4,102.5,131.7,114.1,131.9z M91.3,72.8c0-0.2,0-0.4,0-0.6c1-21.6,14.7-24.8,22.8-24.8h0.4
			c0.2,0,0.5,0,0.7,0h0.4c8.1,0,21.8,3.2,22.8,24.8c0,0.2,0,0.4,0,0.5c0.7,6.4,0.5,25.1-8,34.7c-3.7,4.2-8.8,6.3-15.5,6.3
			c-0.1,0-0.1,0-0.2,0l0,0c-6.7-0.1-11.8-2.1-15.5-6.3C90.8,97.9,90.7,79.2,91.3,72.8z"/>
		<path class="st0" d="M324.1,278.4c-4.6,2-6.7,7.4-4.6,11.9c2.3,5.2,3.7,10.6,4.3,16.2l16.9,165.6c1,9.9,9.3,17.4,19.3,17.4h29.2
			c10,0,18.3-7.5,19.3-17.4l16.9-165.6c0.6-5.5,1.9-10.8,4.1-15.9c1.8-3.3,13.9-25.4,18.3-41.9c3.3-12.2,10.5-65.4-2.3-78.2
			c-3.5-3.5-5.5-5.4-9.7-8.5c-14.8-10.9-32.5-18.1-33.3-18.4c-3.9-1.6-8.3-0.3-10.7,3.1l-17.2,23.6l-17.3-23.5
			c-2.9-4.1-8.6-4.9-12.7-2c-4,2.9-4.9,8.6-2,12.7l24.5,33.7c1.7,2.3,4.4,3.7,7.3,3.7s5.6-1.4,7.3-3.7l20.2-27.8
			c5.9,2.8,15,7.5,22.9,13.3c3,2.2,4.3,3.5,7.4,6.5c3.8,6.6,2.5,43.8-2.1,60.9c-4.2,15.3-16.8,38-16.9,38.2s-0.3,0.5-0.4,0.8
			c-3,6.9-5,14.2-5.7,21.7l-16.9,165.6c-0.1,0.6-0.6,1.1-1.2,1.1h-29.2c-0.6,0-1.2-0.5-1.2-1.1l-16.9-165.6
			c-0.8-7.5-2.7-14.8-5.7-21.7C334,278.4,328.7,276.4,324.1,278.4z"/>
		<path class="st0" d="M373.6,131.9c0.2,0,0.4,0,0.7,0c0.1,0,0.3,0,0.4,0c0.2,0,0.4,0,0.6,0c11.6-0.2,21.4-4.5,28.5-12.4
			c14.9-16.8,12.8-44.8,12.4-48.3c-1.5-30.9-22.9-41.8-40.9-41.8c-0.3,0-0.6,0-0.8,0c-0.2,0-0.5,0-0.8,0c-17.9,0-39.3,11-40.9,41.8
			c-0.3,3.5-2.5,31.5,12.4,48.3C352.2,127.4,362,131.6,373.6,131.9z M350.8,72.8c0-0.2,0-0.4,0-0.6c1-21.6,14.7-24.8,22.8-24.8h0.4
			c0.2,0,0.5,0,0.7,0h0.4c8.1,0,21.8,3.2,22.8,24.8c0,0.2,0,0.4,0,0.5c0.7,6.4,0.5,25.1-8,34.7c-3.7,4.2-8.8,6.2-15.5,6.3l0,0
			c-0.1,0-0.1,0-0.2,0c-6.7-0.1-11.8-2.1-15.5-6.3C350.3,97.9,350.2,79.2,350.8,72.8z"/>
		<path class="st0" d="M169.6,150.5c-13.5,13.5-5.9,69.8-2.3,82.8c4.8,17.5,17.6,41.1,19.5,44.5c2.4,5.5,3.9,11.2,4.5,17.1l18,176.5
			c1,10.3,9.6,18,20,18h31.1c10.3,0,18.9-7.8,20-18l18-176.5c0.6-5.9,2.1-11.7,4.5-17.1c1.9-3.5,14.7-27,19.5-44.5
			c3.5-13,11.2-69.3-2.3-82.8c-3.7-3.7-5.8-5.7-10.2-9c-15.7-11.6-34.6-19.2-35.4-19.6c-3.9-1.6-8.3-0.3-10.7,3.1l-19.1,25.9
			L225.9,125c-2.4-3.4-6.9-4.6-10.7-3.1c-0.8,0.3-19.6,8-35.4,19.6C175.4,144.8,173.2,146.8,169.6,150.5z M182.6,163.1
			c3.3-3.3,4.7-4.6,8-7c8.6-6.4,18.6-11.5,25-14.5l21.8,30c1.7,2.3,4.4,3.7,7.3,3.7c2.9,0,5.6-1.4,7.3-3.7l21.8-30
			c6.3,3,16.3,8.1,25,14.5c3.3,2.4,4.7,3.7,8,7c4.2,6.8,2.9,46.9-2.2,65.4c-4.5,16.4-17.9,40.6-18.1,40.8c-0.1,0.2-0.3,0.5-0.4,0.8
			c-3.2,7.3-5.3,15-6.1,23l-18,176.5c-0.1,1-0.9,1.7-1.9,1.7H229c-1,0-1.8-0.7-1.9-1.7l-18-176.5c-0.8-7.9-2.8-15.7-6.1-23
			c-0.1-0.3-0.2-0.5-0.4-0.8c-0.1-0.2-13.6-24.5-18.1-40.9C179.7,210,178.4,169.9,182.6,163.1z"/>
		<path class="st0" d="M243.8,108.2c0.2,0,0.5,0,0.7,0c0.1,0,0.4,0,0.5,0c0.2,0,0.4,0,0.6,0c12.4-0.2,22.4-4.6,29.9-13.1
			c15.8-17.7,13.4-47.5,13.1-51.1c-1.6-32.5-24.1-44-43-44c-0.3,0-0.6,0-0.9,0c-0.2,0-0.5,0-0.9,0c-18.8,0-41.4,11.5-43,44
			c-0.3,3.6-2.7,33.3,13.1,51C221.4,103.5,231.5,107.9,243.8,108.2z M218.9,45.7c0-0.2,0-0.4,0-0.6c1.1-24.4,17.8-27,24.9-27h0.5
			c0.2,0,0.5,0,0.7,0h0.5c7.1,0,23.8,2.6,24.9,27c0,0.2,0,0.4,0,0.5c0.7,6.9,0.6,27.1-8.6,37.4c-4.1,4.6-9.7,6.9-17,6.9
			c-0.1,0-0.2,0-0.3,0c-7.3-0.1-12.9-2.3-17-6.9C218.3,72.8,218.2,52.6,218.9,45.7z"/>
	</g>
</g>
</svg>
